<svg width="25" height="24" viewBox="0 0 25 24" fill="none" xmlns="http://www.w3.org/2000/svg">
<g clip-path="url(#clip0_8239_8787)">
<circle opacity="0.4" cx="12.9131" cy="12" r="11.5" stroke="#1C2B33" style="stroke:#1C2B33;stroke:color(display-p3 0.1098 0.1686 0.2000);stroke-opacity:1;"/>
<path d="M15.9696 12.6667H8.24576C7.87757 12.6667 7.5791 12.3682 7.5791 12C7.5791 11.6318 7.87757 11.3333 8.24576 11.3333H15.9696L13.7744 9.13807C13.514 8.87772 13.514 8.45561 13.7744 8.19526C14.0347 7.93491 14.4568 7.93491 14.7172 8.19526L18.0505 11.5286C18.3108 11.789 18.3108 12.2111 18.0505 12.4714L14.7172 15.8047C14.4568 16.0651 14.0347 16.0651 13.7744 15.8047C13.514 15.5444 13.514 15.1223 13.7744 14.8619L15.9696 12.6667Z" fill="#1C2B33" style="fill:#1C2B33;fill:color(display-p3 0.1098 0.1686 0.2000);fill-opacity:1;"/>
</g>
<defs>
<clipPath id="clip0_8239_8787">
<rect width="24" height="24" fill="white" style="fill:white;fill-opacity:1;" transform="translate(0.913086)"/>
</clipPath>
</defs>
</svg>
